<svg xmlns="http://www.w3.org/2000/svg" version="1.1" xmlns:xlink="http://www.w3.org/1999/xlink" xmlns:svgjs="http://svgjs.dev/svgjs" width="128" height="128" viewBox="0 0 128 128"><g transform="matrix(0.5421052631578948,0,0,0.5421052631578948,29.2674952340868,12.333870967741937)"><svg viewBox="0 0 104 155" data-background-color="#ffffff" preserveAspectRatio="xMidYMid meet" height="190" width="128" xmlns="http://www.w3.org/2000/svg" xmlns:xlink="http://www.w3.org/1999/xlink"><g id="tight-bounds" transform="matrix(1,0,0,1,0.056606050852906264,0.25)"><svg viewBox="0 0 103.88678789829417 154.5" height="154.5" width="103.88678789829417"><g><svg viewBox="0 0 103.88678789829417 154.5" height="154.5" width="103.88678789829417"><g><svg viewBox="0 0 103.88678789829417 154.5" height="154.5" width="103.88678789829417"><g id="textblocktransform"><svg viewBox="0 0 103.88678789829417 154.5" height="154.5" width="103.88678789829417" id="textblock"><g><svg viewBox="0 0 103.88678789829417 154.5" height="154.5" width="103.88678789829417"><g transform="matrix(1,0,0,1,0,0)"><svg width="103.88678789829417" viewBox="-0.005157894736842106 -34.55 23.545157894736843 35.01" height="154.5" data-palette-color="#000000"><path d="M5.15-1.82Q6.05-1.49 7.08-1.33 8.11-1.17 9.12-1.17 10.13-1.17 11.06-1.39L11.06-1.39 11.06-34.55 23.54-34.55 23.54-13.04Q23.54-6.62 20.29-3.27L20.29-3.27Q16.65 0.46 8.94 0.46L8.94 0.46Q3.86 0.46 1.22-1.86L1.22-1.86 0.81-2.27Q-0.07-3.2 0-3.88L0-3.88Q0.17-5.03 1.03-4.93L1.03-4.93Q1.86-4.79 2.33-3.98 2.81-3.17 3.53-2.66 4.25-2.15 5.15-1.82Z" opacity="1" transform="matrix(1,0,0,1,0,0)" fill="#000000" class="wordmark-text-0" data-fill-palette-color="primary" id="text-0"></path></svg></g></svg></g></svg></g></svg></g></svg></g><defs></defs></svg><rect width="103.88678789829417" height="154.5" fill="none" stroke="none" visibility="hidden"></rect></g></svg></g></svg>